<mxfile host="app.diagrams.net" modified="2023-11-29T07:01:53.736Z" agent="Mozilla/5.0 (Windows NT 10.0; Win64; x64) AppleWebKit/537.36 (KHTML, like Gecko) Chrome/119.0.0.0 Safari/537.36" etag="YKUGeq6bRK-1SA9E69ut" version="22.1.4" type="gitlab">
  <diagram name="Page-1" id="03018318-947c-dd8e-b7a3-06fadd420f32">
    <mxGraphModel dx="1613" dy="755" grid="1" gridSize="10" guides="1" tooltips="1" connect="1" arrows="1" fold="1" page="1" pageScale="1" pageWidth="1100" pageHeight="850" background="none" math="0" shadow="0">
      <root>
        <mxCell id="0" />
        <mxCell id="1" parent="0" />
        <mxCell id="VvVa3tvXdtJ5EDGUCO4C-5" value="" style="whiteSpace=wrap;html=1;rounded=0;shadow=0;labelBackgroundColor=none;strokeColor=#000000;strokeWidth=1;fillColor=none;fontFamily=Verdana;fontSize=12;fontColor=#000000;align=center;comic=1;" vertex="1" parent="1">
          <mxGeometry x="20" y="20" width="1060" height="810" as="geometry" />
        </mxCell>
        <mxCell id="VvVa3tvXdtJ5EDGUCO4C-6" value="" style="whiteSpace=wrap;html=1;aspect=fixed;" vertex="1" parent="1">
          <mxGeometry x="350" y="181.5" width="408.5" height="408.5" as="geometry" />
        </mxCell>
        <mxCell id="VvVa3tvXdtJ5EDGUCO4C-7" value="&lt;font style=&quot;font-size: 36px;&quot;&gt;Sign up&lt;/font&gt;" style="text;html=1;strokeColor=none;fillColor=none;align=center;verticalAlign=middle;whiteSpace=wrap;rounded=0;" vertex="1" parent="1">
          <mxGeometry x="484.25" y="210" width="140" height="50" as="geometry" />
        </mxCell>
        <mxCell id="VvVa3tvXdtJ5EDGUCO4C-8" value="" style="group" vertex="1" connectable="0" parent="1">
          <mxGeometry x="420" y="351.5" width="290" height="61.5" as="geometry" />
        </mxCell>
        <mxCell id="VvVa3tvXdtJ5EDGUCO4C-9" value="Email" style="fillColor=none;strokeColor=none;html=1;fontSize=11;fontStyle=0;align=left;fontColor=#596780;fontStyle=1;fontSize=11" vertex="1" parent="VvVa3tvXdtJ5EDGUCO4C-8">
          <mxGeometry x="5" width="280" height="20" as="geometry" />
        </mxCell>
        <mxCell id="VvVa3tvXdtJ5EDGUCO4C-10" value="tom@gmail.com" style="rounded=1;arcSize=9;align=left;spacingLeft=5;strokeColor=#4C9AFF;html=1;strokeWidth=2;fontSize=12" vertex="1" parent="VvVa3tvXdtJ5EDGUCO4C-8">
          <mxGeometry y="28.5" width="290" height="33" as="geometry" />
        </mxCell>
        <mxCell id="VvVa3tvXdtJ5EDGUCO4C-11" value="" style="group" vertex="1" connectable="0" parent="1">
          <mxGeometry x="420" y="430" width="290" height="61.5" as="geometry" />
        </mxCell>
        <mxCell id="VvVa3tvXdtJ5EDGUCO4C-12" value="Password" style="fillColor=none;strokeColor=none;html=1;fontSize=11;fontStyle=0;align=left;fontColor=#596780;fontStyle=1;fontSize=11" vertex="1" parent="VvVa3tvXdtJ5EDGUCO4C-11">
          <mxGeometry x="5" width="280" height="20" as="geometry" />
        </mxCell>
        <mxCell id="VvVa3tvXdtJ5EDGUCO4C-13" value="*********" style="rounded=1;arcSize=9;align=left;spacingLeft=5;strokeColor=#4C9AFF;html=1;strokeWidth=2;fontSize=12" vertex="1" parent="VvVa3tvXdtJ5EDGUCO4C-11">
          <mxGeometry y="28.5" width="290" height="33" as="geometry" />
        </mxCell>
        <mxCell id="VvVa3tvXdtJ5EDGUCO4C-14" value="&lt;font style=&quot;font-size: 18px;&quot;&gt;Lets go!&lt;/font&gt;" style="rounded=1;fillColor=#0057D8;strokeColor=none;html=1;whiteSpace=wrap;fontColor=#ffffff;align=center;verticalAlign=middle;fontStyle=0;fontSize=12;sketch=0;" vertex="1" parent="1">
          <mxGeometry x="495" y="520" width="110" height="33" as="geometry" />
        </mxCell>
        <mxCell id="VvVa3tvXdtJ5EDGUCO4C-15" value="" style="group" vertex="1" connectable="0" parent="1">
          <mxGeometry x="420" y="280" width="290" height="61.5" as="geometry" />
        </mxCell>
        <mxCell id="VvVa3tvXdtJ5EDGUCO4C-16" value="Name" style="fillColor=none;strokeColor=none;html=1;fontSize=11;fontStyle=0;align=left;fontColor=#596780;fontStyle=1;fontSize=11" vertex="1" parent="VvVa3tvXdtJ5EDGUCO4C-15">
          <mxGeometry x="5" width="280" height="20" as="geometry" />
        </mxCell>
        <mxCell id="VvVa3tvXdtJ5EDGUCO4C-17" value="Tommy" style="rounded=1;arcSize=9;align=left;spacingLeft=5;strokeColor=#4C9AFF;html=1;strokeWidth=2;fontSize=12" vertex="1" parent="VvVa3tvXdtJ5EDGUCO4C-15">
          <mxGeometry y="28.5" width="290" height="33" as="geometry" />
        </mxCell>
      </root>
    </mxGraphModel>
  </diagram>
</mxfile>
